<svg width="40" height="43" viewBox="0 0 40 40" fill="none" xmlns="http://www.w3.org/2000/svg">
<rect width="40" height="43" rx="5" fill="#1877F2"/>
<g clip-path="url(#clip0_7383_420)">
<path d="M31.25 20C31.25 13.7868 26.2132 8.75 20 8.75C13.7868 8.75 8.75 13.7868 8.75 20C8.75 25.6152 12.864 30.2694 18.2422 31.1133V23.252H15.3857V20H18.2422V17.5215C18.2422 14.702 19.9217 13.1445 22.4915 13.1445C23.7223 13.1445 25.0098 13.3643 25.0098 13.3643V16.1328H23.5912C22.1937 16.1328 21.7578 17 21.7578 17.8897V20H24.8779L24.3792 23.252H21.7578V31.1133C27.1361 30.2694 31.25 25.6152 31.25 20Z" fill="white"/>
<path d="M24.3792 23.252L24.8779 20H21.7578V17.8897C21.7578 17 22.1936 16.1328 23.5912 16.1328H25.0098V13.3643C25.0098 13.3643 23.7223 13.1445 22.4915 13.1445C19.9217 13.1445 18.2422 14.702 18.2422 17.5215V20H15.3857V23.252H18.2422V31.1133C18.8149 31.2032 19.402 31.25 20 31.25C20.598 31.25 21.185 31.2032 21.7578 31.1133V23.252H24.3792Z" fill="#1877F2"/>
</g>
<defs>
<clipPath id="clip0_7383_420">
<rect width="22.5" height="22.5" fill="white" transform="translate(8.75 8.75)"/>
</clipPath>
</defs>
</svg>
