<svg width="30" height="30" viewBox="0 0 30 30" fill="none" xmlns="http://www.w3.org/2000/svg">
<path fill-rule="evenodd" clip-rule="evenodd" d="M14.9956 0.416626C6.95607 0.416626 0.416504 6.95802 0.416504 14.9998C0.416504 18.1891 1.44502 21.1469 3.19342 23.5476L1.37632 28.9658L6.9817 27.1743C9.28718 28.7004 12.0385 29.5833 15.0041 29.5833C23.0436 29.5833 29.5832 23.0417 29.5832 15.0001C29.5832 6.95828 23.0436 0.416867 15.0041 0.416867H14.9956V0.416626ZM10.9243 7.82425C10.6415 7.147 10.4272 7.12136 9.99883 7.10394C9.85297 7.09547 9.69042 7.08701 9.51021 7.08701C8.95289 7.08701 8.37017 7.24984 8.0187 7.60988C7.59031 8.04711 6.52742 9.0672 6.52742 11.1592C6.52742 13.2512 8.05305 15.2745 8.25866 15.5576C8.47298 15.8402 11.233 20.1955 15.5183 21.9705C18.8695 23.3593 19.8639 23.2306 20.6266 23.0678C21.7408 22.8277 23.138 22.0044 23.4894 21.0101C23.8409 20.0154 23.8409 19.1666 23.7378 18.9866C23.635 18.8066 23.352 18.704 22.9236 18.4894C22.4952 18.275 20.4123 17.2462 20.018 17.109C19.6322 16.9633 19.2638 17.0149 18.9726 17.4265C18.5611 18.0009 18.1584 18.584 17.8325 18.9353C17.5754 19.2097 17.1552 19.2441 16.804 19.0982C16.3325 18.9012 15.0128 18.4379 13.3841 16.989C12.1241 15.8661 11.2671 14.4687 11.0187 14.0487C10.77 13.6202 10.993 13.3712 11.1899 13.1399C11.4042 12.874 11.6098 12.6855 11.8242 12.4367C12.0385 12.1882 12.1585 12.0595 12.2956 11.768C12.4415 11.4851 12.3384 11.1936 12.2356 10.9792C12.1328 10.7648 11.2758 8.6728 10.9243 7.82425Z" fill="white"/>
</svg>
