<svg width="20" height="20" viewBox="0 0 20 20" fill="none" xmlns="http://www.w3.org/2000/svg">
<path d="M19.2592 14.5556V17.3334C19.2602 17.5913 19.2074 17.8465 19.1041 18.0828C19.0008 18.3191 18.8493 18.5312 18.6592 18.7055C18.4692 18.8798 18.2449 19.0126 18.0006 19.0952C17.7563 19.1778 17.4975 19.2085 17.2406 19.1853C14.3914 18.8757 11.6545 17.9021 9.2499 16.3427C7.0127 14.9211 5.11595 13.0243 3.69435 10.7871C2.12951 8.37156 1.15568 5.62136 0.851754 2.75933C0.828615 2.50328 0.859045 2.24522 0.941106 2.00158C1.02317 1.75793 1.15506 1.53404 1.32839 1.34417C1.50172 1.15429 1.71268 1.00258 1.94786 0.898703C2.18303 0.794826 2.43725 0.741055 2.69435 0.740812H5.47212C5.92148 0.73639 6.35712 0.895515 6.69783 1.18853C7.03854 1.48154 7.26108 1.88845 7.32397 2.3334C7.44122 3.22235 7.65865 4.09519 7.97212 4.93526C8.0967 5.26667 8.12366 5.62684 8.04981 5.97311C7.97597 6.31937 7.8044 6.63721 7.55546 6.88896L6.37953 8.06488C7.69764 10.383 9.61699 12.3023 11.9351 13.6204L13.111 12.4445C13.3628 12.1956 13.6806 12.024 14.0269 11.9502C14.3731 11.8763 14.7333 11.9033 15.0647 12.0278C15.9048 12.3413 16.7776 12.5588 17.6666 12.676C18.1164 12.7394 18.5271 12.966 18.8208 13.3126C19.1144 13.6591 19.2704 14.1015 19.2592 14.5556Z" fill="white"/>
</svg>
