<svg width="40" height="43" viewBox="0 0 40 40" fill="none" xmlns="http://www.w3.org/2000/svg">
<rect width="40" height="43" rx="5" fill="url(#paint0_linear_7383_411)"/>
<g clip-path="url(#clip0_7383_411)">
<mask id="mask0_7383_411" style="mask-type:luminance" maskUnits="userSpaceOnUse" x="8" y="8" width="24" height="24">
<path d="M15.3627 8.88218C14.1716 8.9384 13.3581 9.12919 12.6472 9.40774C11.9113 9.69462 11.2875 10.0791 10.667 10.7022C10.0457 11.3256 9.66414 11.9506 9.37943 12.6872C9.10379 13.3999 8.91701 14.2138 8.8644 15.4056C8.81219 16.5996 8.80021 16.9804 8.80603 20.0201C8.81183 23.0595 8.82524 23.441 8.88217 24.6354C8.9391 25.8261 9.12918 26.6392 9.40773 27.3505C9.69497 28.0864 10.079 28.7099 10.7025 29.3308C11.3256 29.9517 11.9509 30.3329 12.6879 30.618C13.3998 30.8933 14.214 31.0808 15.4055 31.133C16.5994 31.1856 16.9806 31.1972 20.0196 31.1914C23.06 31.1856 23.4412 31.1722 24.6351 31.1156C25.8262 31.0587 26.639 30.8679 27.3506 30.5901C28.0865 30.3021 28.7103 29.9187 29.3308 29.2953C29.9514 28.6721 30.333 28.0469 30.6177 27.3099C30.8933 26.5979 31.0808 25.7837 31.1327 24.593C31.1849 23.3982 31.1972 23.0167 31.1914 19.9773C31.1856 16.9376 31.1719 16.5568 31.1153 15.3631C31.0587 14.1714 30.8679 13.3586 30.5897 12.647C30.3021 11.9111 29.9184 11.288 29.2953 10.6667C28.6722 10.0461 28.047 9.66382 27.31 9.37983C26.5976 9.10418 25.7838 8.9163 24.5923 8.86481C23.3984 8.81184 23.0172 8.80024 19.9771 8.80604C16.9378 8.81186 16.5567 8.82491 15.3627 8.88221M15.4933 29.1183C14.4019 29.0707 13.8093 28.8894 13.4143 28.7374C12.8913 28.535 12.5181 28.2924 12.1253 27.9025C11.7333 27.5112 11.4899 27.139 11.2857 26.6171C11.1323 26.2222 10.9477 25.6302 10.8966 24.5389C10.841 23.3591 10.8284 23.0051 10.8229 20.0161C10.8171 17.0279 10.828 16.6739 10.8795 15.493C10.9263 14.4024 11.1087 13.809 11.2603 13.4144C11.4627 12.8907 11.7046 12.5182 12.0952 12.1254C12.4866 11.7326 12.8587 11.49 13.381 11.2858C13.7756 11.1316 14.3675 10.9485 15.4584 10.8966C16.639 10.8408 16.9926 10.8288 19.9808 10.823C22.9697 10.8172 23.3237 10.8277 24.5046 10.8796C25.5952 10.9271 26.1885 11.1077 26.5828 11.2604C27.1061 11.4628 27.4793 11.704 27.8718 12.0953C28.2642 12.4866 28.5075 12.8581 28.7117 13.3814C28.8659 13.7749 29.049 14.3676 29.1005 15.4582C29.1567 16.6388 29.1694 16.9927 29.1749 19.981C29.1807 22.9699 29.1698 23.3239 29.118 24.5041C29.0704 25.5954 28.8895 26.1884 28.7371 26.5837C28.5347 27.1064 28.2928 27.4796 27.9018 27.8724C27.5109 28.2638 27.1388 28.5078 26.6161 28.712C26.2223 28.8658 25.6296 29.0493 24.5394 29.1012C23.3588 29.1567 23.0052 29.1694 20.016 29.1748C17.0278 29.1807 16.6742 29.1694 15.4933 29.1183ZM24.6188 14.015C24.6203 14.7564 25.223 15.3566 25.9644 15.3552C26.7061 15.3537 27.3063 14.7513 27.3052 14.0099C27.3038 13.2686 26.701 12.668 25.9593 12.6695C25.2176 12.6709 24.6174 13.2737 24.6188 14.015M14.2511 20.0096C14.2572 23.1842 16.8356 25.7521 20.0094 25.7459C23.1837 25.7397 25.7529 23.1621 25.7468 19.9875C25.7406 16.8139 23.1619 14.2446 19.9873 14.2508C16.8134 14.2569 14.2449 16.8357 14.2511 20.0096ZM16.2672 20.0056C16.2636 17.9451 17.9312 16.2713 19.9913 16.2677C22.0517 16.2637 23.7259 17.9306 23.7299 19.9915C23.7339 22.0523 22.0662 23.7257 20.0054 23.7297C17.9454 23.7337 16.2712 22.0664 16.2672 20.0056Z" fill="white"/>
</mask>
<g mask="url(#mask0_7383_411)">
<rect x="4.99902" y="4.99902" width="30" height="30" fill="white"/>
</g>
</g>
<defs>
<linearGradient id="paint0_linear_7383_411" x1="40" y1="-1.21072e-06" x2="-0.624998" y2="40" gradientUnits="userSpaceOnUse">
<stop stop-color="#6B54C6"/>
<stop offset="0.511088" stop-color="#DA2E7D"/>
<stop offset="1" stop-color="#F38334"/>
</linearGradient>
<clipPath id="clip0_7383_411">
<rect width="22.5" height="22.5" fill="white" transform="translate(8.75 8.75)"/>
</clipPath>
</defs>
</svg>
