<svg width="40" height="43" viewBox="0 0 40 40" fill="none" xmlns="http://www.w3.org/2000/svg">
<rect width="40" height="43" rx="5" fill="#2867B2"/>
<g clip-path="url(#clip0_7383_426)">
<path fill-rule="evenodd" clip-rule="evenodd" d="M32.5 10.625C32.5 8.90024 31.0998 7.5 29.375 7.5H10.625C8.90024 7.5 7.5 8.90024 7.5 10.625V29.375C7.5 31.0998 8.90024 32.5 10.625 32.5H29.375C31.0998 32.5 32.5 31.0998 32.5 29.375V10.625Z" fill="#2867B2"/>
<path d="M14.668 16.2246H10.4805V28.8204H14.668V16.2246Z" fill="white"/>
<path d="M12.6031 10.1504C11.1705 10.1504 10.2344 11.0923 10.2344 12.3268C10.2344 13.5354 11.142 14.5033 12.5477 14.5033H12.5748C14.0349 14.5033 14.9437 13.5354 14.9437 12.3268C14.9166 11.0923 14.035 10.1504 12.6031 10.1504Z" fill="white"/>
<path d="M24.946 15.9268C22.7248 15.9268 21.7299 17.1483 21.1728 18.0063V16.2229H16.9863C17.0418 17.4044 16.9863 28.8187 16.9863 28.8187H21.1727V21.7843C21.1727 21.4078 21.1998 21.0314 21.3107 20.7623C21.6129 20.0104 22.3022 19.2314 23.4588 19.2314C24.9731 19.2314 25.5797 20.3869 25.5797 22.0794V28.8187H29.7663V21.5956C29.7663 17.7266 27.7006 15.9268 24.946 15.9268Z" fill="white"/>
</g>
<defs>
<clipPath id="clip0_7383_426">
<rect width="25" height="25" fill="white" transform="translate(7.5 7.5)"/>
</clipPath>
</defs>
</svg>
